{"asset":{"version":"2.0","generator":"babylon.js glTF exporter for 3dsmax 2020 v20210401.5"},"extensionsUsed":["KHR_lights_punctual","KHR_texture_transform"],"extensionsRequired":["KHR_texture_transform"],"scene":0,"scenes":[{"nodes":[0,1,2,11,12,13,14,15,16,17,18,25,26]}],"nodes":[{"mesh":0,"translation":[0.372890443,-1.7957077,-0.522044539],"name":"Ground"},{"mesh":1,"translation":[0.6357602,-2.04369354,-0.15215379],"name":"GroundOuter"},{"children":[3,4,5,6,7,8,9,10],"translation":[-36.9667854,27.7706375,0.103935242],"name":"Bones"},{"mesh":2,"translation":[30.4239235,-45.5470963,103.666183],"rotation":[0.7071068,0.0,0.0,0.7071067],"scale":[0.7209805,0.7209805,0.7209805],"name":"Ellipse001"},{"mesh":3,"translation":[30.4239235,-45.5470963,73.66618],"rotation":[0.7071068,0.0,0.0,0.7071067],"scale":[0.7209805,0.7209805,0.7209805],"name":"Ellipse002"},{"mesh":4,"translation":[30.4239235,-45.5470963,43.6661835],"rotation":[0.7071068,0.0,0.0,0.7071067],"scale":[0.7209805,0.7209805,0.7209805],"name":"Ellipse003"},{"mesh":5,"translation":[30.4239235,-45.5470963,13.6661835],"rotation":[0.7071068,0.0,0.0,0.7071067],"scale":[0.7209805,0.7209805,0.7209805],"name":"Ellipse004"},{"mesh":6,"translation":[30.4239235,-45.5470963,-16.3338165],"rotation":[0.7071068,0.0,0.0,0.7071067],"scale":[0.7209805,0.7209805,0.7209805],"name":"Ellipse005"},{"mesh":7,"translation":[30.4239235,-45.5470963,-46.3338165],"rotation":[0.7071068,0.0,0.0,0.7071067],"scale":[0.7209805,0.7209805,0.7209805],"name":"Ellipse006"},{"mesh":8,"translation":[30.4239235,-45.5470963,-76.33383],"rotation":[0.7071068,0.0,0.0,0.7071067],"scale":[0.7209805,0.7209805,0.7209805],"name":"Ellipse007"},{"mesh":9,"translation":[30.4239235,-45.5470963,-106.333832],"rotation":[0.7071068,0.0,0.0,0.7071067],"scale":[0.7209805,0.7209805,0.7209805],"name":"Ellipse008"},{"mesh":10,"translation":[1.10376692,67.5283051,0.6084449],"name":"Tube002"},{"mesh":11,"translation":[19.574688,14.5,-15.642086],"rotation":[-0.70057267,0.09590589,0.09590589,0.70057267],"name":"Art1"},{"mesh":12,"translation":[44.3277855,14.5,4.70348454],"rotation":[-0.5452772,-0.450191975,-0.450191975,0.5452772],"scale":[1.00000012,1.00000012,1.0],"name":"Art2"},{"mesh":13,"translation":[3.04948425,14.5,43.8822174],"rotation":[5.3385083E-08,-0.7071068,-0.7071068,-5.3385083E-08],"name":"Art3"},{"mesh":14,"translation":[-40.70127,14.5,25.98331],"rotation":[0.339677542,-0.620176733,-0.620176733,-0.339677542],"scale":[1.00000024,1.00000024,1.0],"name":"Art4"},{"mesh":15,"translation":[-38.325386,14.5,-23.8020763],"rotation":[-0.615824759,0.347505271,0.347505271,0.6158247],"scale":[1.00000012,1.00000012,1.0],"name":"Art5"},{"mesh":16,"translation":[-12.8774834,14.5,-38.84954],"rotation":[-0.7071068,0.0,0.0,0.7071068],"name":"Art6"},{"children":[19,20,21,22,23,24],"translation":[-0.395906448,14.4027033,2.279726],"name":"Walls"},{"mesh":17,"translation":[22.54756,-15.0,-20.142],"rotation":[0.0,-0.6046669,0.0,0.7964785],"name":"Box001"},{"mesh":18,"translation":[3.23525524,-15.0000153,42.5856857],"name":"Box002"},{"mesh":19,"translation":[-41.54692,-15.0,24.4770184],"rotation":[0.0,0.28049925,0.0,0.959854245],"scale":[0.99999994,1.0,0.99999994],"name":"Box003"},{"mesh":20,"translation":[44.57895,-15.0,-3.60806942],"rotation":[0.0,0.09508524,0.0,0.995469153],"scale":[1.00000012,1.0,1.00000012],"name":"Box004"},{"mesh":21,"translation":[-13.3638573,-14.9999847,-42.2358627],"name":"Box005"},{"mesh":22,"translation":[-38.84395,-15.0,-27.59358],"rotation":[0.0,-0.268319547,0.0,0.96333],"name":"Box006"},{"translation":[20.0008869,20.5831985,17.1207027],"rotation":[-0.707106769,0.0,0.0,0.707106769],"name":"Omni001","extensions":{"KHR_lights_punctual":{"light":0}}},{"translation":[-17.4844,22.2286453,-7.94047165],"rotation":[-0.707106769,0.0,0.0,0.707106769],"name":"Omni002","extensions":{"KHR_lights_punctual":{"light":1}}}],"meshes":[{"primitives":[{"attributes":{"POSITION":1,"NORMAL":2,"TEXCOORD_0":3},"indices":0,"material":0}],"name":"Ground"},{"primitives":[{"attributes":{"POSITION":5,"NORMAL":6,"TEXCOORD_0":7},"indices":4,"material":1}],"name":"GroundOuter"},{"primitives":[{"attributes":{"POSITION":9,"NORMAL":10,"TEXCOORD_0":11},"indices":8,"material":1}],"name":"Ellipse001"},{"primitives":[{"attributes":{"POSITION":13,"NORMAL":14,"TEXCOORD_0":15},"indices":12,"material":1}],"name":"Ellipse002"},{"primitives":[{"attributes":{"POSITION":17,"NORMAL":18,"TEXCOORD_0":19},"indices":16,"material":1}],"name":"Ellipse003"},{"primitives":[{"attributes":{"POSITION":21,"NORMAL":22,"TEXCOORD_0":23},"indices":20,"material":1}],"name":"Ellipse004"},{"primitives":[{"attributes":{"POSITION":25,"NORMAL":26,"TEXCOORD_0":27},"indices":24,"material":1}],"name":"Ellipse005"},{"primitives":[{"attributes":{"POSITION":29,"NORMAL":30,"TEXCOORD_0":31},"indices":28,"material":1}],"name":"Ellipse006"},{"primitives":[{"attributes":{"POSITION":33,"NORMAL":34,"TEXCOORD_0":35},"indices":32,"material":1}],"name":"Ellipse007"},{"primitives":[{"attributes":{"POSITION":37,"NORMAL":38,"TEXCOORD_0":39},"indices":36,"material":1}],"name":"Ellipse008"},{"primitives":[{"attributes":{"POSITION":41,"NORMAL":42,"TEXCOORD_0":43},"indices":40,"material":1}],"name":"Tube002"},{"primitives":[{"attributes":{"POSITION":45,"NORMAL":46,"TEXCOORD_0":47},"indices":44,"material":1}],"name":"Art1"},{"primitives":[{"attributes":{"POSITION":49,"NORMAL":50,"TEXCOORD_0":51},"indices":48,"material":1}],"name":"Art2"},{"primitives":[{"attributes":{"POSITION":53,"NORMAL":54,"TEXCOORD_0":55},"indices":52,"material":1}],"name":"Art3"},{"primitives":[{"attributes":{"POSITION":57,"NORMAL":58,"TEXCOORD_0":59},"indices":56,"material":1}],"name":"Art4"},{"primitives":[{"attributes":{"POSITION":61,"NORMAL":62,"TEXCOORD_0":63},"indices":60,"material":1}],"name":"Art5"},{"primitives":[{"attributes":{"POSITION":65,"NORMAL":66,"TEXCOORD_0":67},"indices":64,"material":1}],"name":"Art6"},{"primitives":[{"attributes":{"POSITION":69,"NORMAL":70,"TEXCOORD_0":71},"indices":68,"material":1}],"name":"Box001"},{"primitives":[{"attributes":{"POSITION":73,"NORMAL":74,"TEXCOORD_0":75},"indices":72,"material":1}],"name":"Box002"},{"primitives":[{"attributes":{"POSITION":77,"NORMAL":78,"TEXCOORD_0":79},"indices":76,"material":1}],"name":"Box003"},{"primitives":[{"attributes":{"POSITION":81,"NORMAL":82,"TEXCOORD_0":83},"indices":80,"material":1}],"name":"Box004"},{"primitives":[{"attributes":{"POSITION":85,"NORMAL":86,"TEXCOORD_0":87},"indices":84,"material":1}],"name":"Box005"},{"primitives":[{"attributes":{"POSITION":89,"NORMAL":90,"TEXCOORD_0":91},"indices":88,"material":1}],"name":"Box006"}],"accessors":[{"bufferView":0,"componentType":5123,"count":648,"type":"SCALAR","name":"accessorIndices"},{"bufferView":1,"componentType":5126,"count":648,"max":[65.35768,1.67026258,64.36475],"min":[-65.35768,0.0,-64.36475],"type":"VEC3","name":"accessorPositions"},{"bufferView":1,"byteOffset":7776,"componentType":5126,"count":648,"type":"VEC3","name":"accessorNormals"},{"bufferView":2,"componentType":5126,"count":648,"type":"VEC2","name":"accessorUVs"},{"bufferView":0,"byteOffset":1296,"componentType":5123,"count":4782,"type":"SCALAR","name":"accessorIndices"},{"bufferView":1,"byteOffset":15552,"componentType":5126,"count":4782,"max":[66.61882,3.072702,67.62916],"min":[-66.61882,0.0,-67.64652],"type":"VEC3","name":"accessorPositions"},{"bufferView":1,"byteOffset":72936,"componentType":5126,"count":4782,"type":"VEC3","name":"accessorNormals"},{"bufferView":2,"byteOffset":5184,"componentType":5126,"count":4782,"type":"VEC2","name":"accessorUVs"},{"bufferView":0,"byteOffset":10860,"componentType":5123,"count":1356,"type":"SCALAR","name":"accessorIndices"},{"bufferView":1,"byteOffset":130320,"componentType":5126,"count":1356,"max":[99.6954041,-107.601456,0.06484389],"min":[19.5643158,-140.501312,-126.410179],"type":"VEC3","name":"accessorPositions"},{"bufferView":1,"byteOffset":146592,"componentType":5126,"count":1356,"type":"VEC3","name":"accessorNormals"},{"bufferView":2,"byteOffset":43440,"componentType":5126,"count":1356,"type":"VEC2","name":"accessorUVs"},{"bufferView":0,"byteOffset":13572,"componentType":5123,"count":1356,"type":"SCALAR","name":"accessorIndices"},{"bufferView":1,"byteOffset":162864,"componentType":5126,"count":1356,"max":[51.3975,-14.5337543,0.06483228],"min":[13.9737,-92.98102,-126.410187],"type":"VEC3","name":"accessorPositions"},{"bufferView":1,"byteOffset":179136,"componentType":5126,"count":1356,"type":"VEC3","name":"accessorNormals"},{"bufferView":2,"byteOffset":54288,"componentType":5126,"count":1356,"type":"VEC2","name":"accessorUVs"},{"bufferView":0,"byteOffset":16284,"componentType":5123,"count":1356,"type":"SCALAR","name":"accessorIndices"},{"bufferView":1,"byteOffset":195408,"componentType":5126,"count":1356,"max":[6.65249252,28.3963089,0.0648210049],"min":[-27.7688942,-51.2043076,-126.410194],"type":"VEC3","name":"accessorPositions"},{"bufferView":1,"byteOffset":211680,"componentType":5126,"count":1356,"type":"VEC3","name":"accessorNormals"},{"bufferView":2,"byteOffset":65136,"componentType":5126,"count":1356,"type":"VEC2","name":"accessorUVs"},{"bufferView":0,"byteOffset":18996,"componentType":5123,"count":1356,"type":"SCALAR","name":"accessorIndices"},{"bufferView":1,"byteOffset":227952,"componentType":5126,"count":1356,"max":[0.8465164,20.6358681,0.06482482],"min":[-78.19272,-15.2937021,-126.4102],"type":"VEC3","name":"accessorPositions"},{"bufferView":1,"byteOffset":244224,"componentType":5126,"count":1356,"type":"VEC3","name":"accessorNormals"},{"bufferView":2,"byteOffset":75984,"componentType":5126,"count":1356,"type":"VEC2","name":"accessorUVs"},{"bufferView":0,"byteOffset":21708,"componentType":5123,"count":1356,"type":"SCALAR","name":"accessorIndices"},{"bufferView":1,"byteOffset":260496,"componentType":5126,"count":1356,"max":[0.846516252,18.99367,0.06482863],"min":[-78.1927,-16.9358826,-126.41021],"type":"VEC3","name":"accessorPositions"},{"bufferView":1,"byteOffset":276768,"componentType":5126,"count":1356,"type":"VEC3","name":"accessorNormals"},{"bufferView":2,"byteOffset":86832,"componentType":5126,"count":1356,"type":"VEC2","name":"accessorUVs"},{"bufferView":0,"byteOffset":24420,"componentType":5123,"count":1356,"type":"SCALAR","name":"accessorIndices"},{"bufferView":1,"byteOffset":293040,"componentType":5126,"count":1356,"max":[6.652486,54.9042664,0.06483245],"min":[-27.76887,-24.6963081,-126.410217],"type":"VEC3","name":"accessorPositions"},{"bufferView":1,"byteOffset":309312,"componentType":5126,"count":1356,"type":"VEC3","name":"accessorNormals"},{"bufferView":2,"byteOffset":97680,"componentType":5126,"count":1356,"type":"VEC2","name":"accessorUVs"},{"bufferView":0,"byteOffset":27132,"componentType":5123,"count":1356,"type":"SCALAR","name":"accessorIndices"},{"bufferView":1,"byteOffset":325584,"componentType":5126,"count":1356,"max":[51.39756,96.681,0.06482487],"min":[13.9736958,18.2338257,-126.410225],"type":"VEC3","name":"accessorPositions"},{"bufferView":1,"byteOffset":341856,"componentType":5126,"count":1356,"type":"VEC3","name":"accessorNormals"},{"bufferView":2,"byteOffset":108528,"componentType":5126,"count":1356,"type":"VEC2","name":"accessorUVs"},{"bufferView":0,"byteOffset":29844,"componentType":5123,"count":1356,"type":"SCALAR","name":"accessorIndices"},{"bufferView":1,"byteOffset":358128,"componentType":5126,"count":1356,"max":[99.69542,144.201263,0.06480194],"min":[19.5643158,111.301514,-126.410233],"type":"VEC3","name":"accessorPositions"},{"bufferView":1,"byteOffset":374400,"componentType":5126,"count":1356,"type":"VEC3","name":"accessorNormals"},{"bufferView":2,"byteOffset":119376,"componentType":5126,"count":1356,"type":"VEC2","name":"accessorUVs"},{"bufferView":0,"byteOffset":32556,"componentType":5123,"count":4548,"type":"SCALAR","name":"accessorIndices"},{"bufferView":1,"byteOffset":390672,"componentType":5126,"count":4548,"max":[8.90232,6.578876,9.039652],"min":[-8.90232,0.0,-8.99624],"type":"VEC3","name":"accessorPositions"},{"bufferView":1,"byteOffset":445248,"componentType":5126,"count":4548,"type":"VEC3","name":"accessorNormals"},{"bufferView":2,"byteOffset":130224,"componentType":5126,"count":4548,"type":"VEC2","name":"accessorUVs"},{"bufferView":0,"byteOffset":41652,"componentType":5123,"count":36,"type":"SCALAR","name":"accessorIndices"},{"bufferView":1,"byteOffset":499824,"componentType":5126,"count":36,"max":[13.0,0.2,13.0],"min":[-13.0,0.0,-13.0],"type":"VEC3","name":"accessorPositions"},{"bufferView":1,"byteOffset":500256,"componentType":5126,"count":36,"type":"VEC3","name":"accessorNormals"},{"bufferView":2,"byteOffset":166608,"componentType":5126,"count":36,"type":"VEC2","name":"accessorUVs"},{"bufferView":0,"byteOffset":41724,"componentType":5123,"count":36,"type":"SCALAR","name":"accessorIndices"},{"bufferView":1,"byteOffset":500688,"componentType":5126,"count":36,"max":[13.0,0.2,13.0],"min":[-13.0,0.0,-13.0],"type":"VEC3","name":"accessorPositions"},{"bufferView":1,"byteOffset":501120,"componentType":5126,"count":36,"type":"VEC3","name":"accessorNormals"},{"bufferView":2,"byteOffset":166896,"componentType":5126,"count":36,"type":"VEC2","name":"accessorUVs"},{"bufferView":0,"byteOffset":41796,"componentType":5123,"count":36,"type":"SCALAR","name":"accessorIndices"},{"bufferView":1,"byteOffset":501552,"componentType":5126,"count":36,"max":[13.5,0.2,13.5],"min":[-13.5,0.0,-13.5],"type":"VEC3","name":"accessorPositions"},{"bufferView":1,"byteOffset":501984,"componentType":5126,"count":36,"type":"VEC3","name":"accessorNormals"},{"bufferView":2,"byteOffset":167184,"componentType":5126,"count":36,"type":"VEC2","name":"accessorUVs"},{"bufferView":0,"byteOffset":41868,"componentType":5123,"count":36,"type":"SCALAR","name":"accessorIndices"},{"bufferView":1,"byteOffset":502416,"componentType":5126,"count":36,"max":[11.5,0.2,11.5],"min":[-11.5,0.0,-11.5],"type":"VEC3","name":"accessorPositions"},{"bufferView":1,"byteOffset":502848,"componentType":5126,"count":36,"type":"VEC3","name":"accessorNormals"},{"bufferView":2,"byteOffset":167472,"componentType":5126,"count":36,"type":"VEC2","name":"accessorUVs"},{"bufferView":0,"byteOffset":41940,"componentType":5123,"count":36,"type":"SCALAR","name":"accessorIndices"},{"bufferView":1,"byteOffset":503280,"componentType":5126,"count":36,"max":[13.0,0.2,13.0],"min":[-13.0,0.0,-13.0],"type":"VEC3","name":"accessorPositions"},{"bufferView":1,"byteOffset":503712,"componentType":5126,"count":36,"type":"VEC3","name":"accessorNormals"},{"bufferView":2,"byteOffset":167760,"componentType":5126,"count":36,"type":"VEC2","name":"accessorUVs"},{"bufferView":0,"byteOffset":42012,"componentType":5123,"count":36,"type":"SCALAR","name":"accessorIndices"},{"bufferView":1,"byteOffset":504144,"componentType":5126,"count":36,"max":[13.0,0.2,13.0],"min":[-13.0,0.0,-13.0],"type":"VEC3","name":"accessorPositions"},{"bufferView":1,"byteOffset":504576,"componentType":5126,"count":36,"type":"VEC3","name":"accessorNormals"},{"bufferView":2,"byteOffset":168048,"componentType":5126,"count":36,"type":"VEC2","name":"accessorUVs"},{"bufferView":0,"byteOffset":42084,"componentType":5123,"count":324,"type":"SCALAR","name":"accessorIndices"},{"bufferView":1,"byteOffset":505008,"componentType":5126,"count":324,"max":[1.14478183,30.0,19.0327148],"min":[-1.14478183,0.0,-19.0327148],"type":"VEC3","name":"accessorPositions"},{"bufferView":1,"byteOffset":508896,"componentType":5126,"count":324,"type":"VEC3","name":"accessorNormals"},{"bufferView":2,"byteOffset":168336,"componentType":5126,"count":324,"type":"VEC2","name":"accessorUVs"},{"bufferView":0,"byteOffset":42732,"componentType":5123,"count":324,"type":"SCALAR","name":"accessorIndices"},{"bufferView":1,"byteOffset":512784,"componentType":5126,"count":324,"max":[22.32101,30.0,0.6835446],"min":[-22.32101,0.0,-0.6835446],"type":"VEC3","name":"accessorPositions"},{"bufferView":1,"byteOffset":516672,"componentType":5126,"count":324,"type":"VEC3","name":"accessorNormals"},{"bufferView":2,"byteOffset":170928,"componentType":5126,"count":324,"type":"VEC2","name":"accessorUVs"},{"bufferView":0,"byteOffset":43380,"componentType":5123,"count":324,"type":"SCALAR","name":"accessorIndices"},{"bufferView":1,"byteOffset":520560,"componentType":5126,"count":324,"max":[1.23882651,30.0,12.654376],"min":[-1.23882651,0.0,-12.654376],"type":"VEC3","name":"accessorPositions"},{"bufferView":1,"byteOffset":524448,"componentType":5126,"count":324,"type":"VEC3","name":"accessorNormals"},{"bufferView":2,"byteOffset":173520,"componentType":5126,"count":324,"type":"VEC2","name":"accessorUVs"},{"bufferView":0,"byteOffset":44028,"componentType":5123,"count":324,"type":"SCALAR","name":"accessorIndices"},{"bufferView":1,"byteOffset":528336,"componentType":5126,"count":324,"max":[0.6505331,30.0,22.1182156],"min":[-0.6505331,0.0,-22.1182156],"type":"VEC3","name":"accessorPositions"},{"bufferView":1,"byteOffset":532224,"componentType":5126,"count":324,"type":"VEC3","name":"accessorNormals"},{"bufferView":2,"byteOffset":176112,"componentType":5126,"count":324,"type":"VEC2","name":"accessorUVs"},{"bufferView":0,"byteOffset":44676,"componentType":5123,"count":324,"type":"SCALAR","name":"accessorIndices"},{"bufferView":1,"byteOffset":536112,"componentType":5126,"count":324,"max":[17.0,30.0,1.013358],"min":[-17.0,0.0,-1.013358],"type":"VEC3","name":"accessorPositions"},{"bufferView":1,"byteOffset":540000,"componentType":5126,"count":324,"type":"VEC3","name":"accessorNormals"},{"bufferView":2,"byteOffset":178704,"componentType":5126,"count":324,"type":"VEC2","name":"accessorUVs"},{"bufferView":0,"byteOffset":45324,"componentType":5123,"count":324,"type":"SCALAR","name":"accessorIndices"},{"bufferView":1,"byteOffset":543888,"componentType":5126,"count":324,"max":[1.39663339,30.0,17.46902],"min":[-1.39663339,0.0,-17.46902],"type":"VEC3","name":"accessorPositions"},{"bufferView":1,"byteOffset":547776,"componentType":5126,"count":324,"type":"VEC3","name":"accessorNormals"},{"bufferView":2,"byteOffset":181296,"componentType":5126,"count":324,"type":"VEC2","name":"accessorUVs"}],"bufferViews":[{"buffer":0,"byteLength":45972,"name":"bufferViewScalar"},{"buffer":0,"byteOffset":45972,"byteLength":551664,"byteStride":12,"name":"bufferViewFloatVec3"},{"buffer":0,"byteOffset":597636,"byteLength":183888,"byteStride":8,"name":"bufferViewFloatVec2"}],"buffers":[{"uri":"gallery.bin","byteLength":781524}],"materials":[{"pbrMetallicRoughness":{"baseColorTexture":{"index":0,"extensions":{"KHR_texture_transform":{"texCoord":0}}},"metallicFactor":0.0,"roughnessFactor":0.7022211},"name":"Material #25"},{"pbrMetallicRoughness":{"baseColorTexture":{"index":1,"extensions":{"KHR_texture_transform":{"texCoord":0}}},"metallicFactor":0.0,"roughnessFactor":0.7022211},"name":"Material #26"}],"textures":[{"sampler":0,"source":0,"name":"floor.jpg"},{"sampler":0,"source":1,"name":"wall.jpg"}],"images":[{"uri":"ExTex/floor.jpg"},{"uri":"ExTex/wall.jpg"}],"samplers":[{"magFilter":9729,"minFilter":9987}],"extensions":{"KHR_lights_punctual":{"lights":[{"intensity":0.65,"type":"point"},{"intensity":0.65,"type":"point"}]}}}